<svg xmlns="http://www.w3.org/2000/svg" id="Calque_2" data-name="Calque 2" viewBox="0 0 644.17 686.82"><defs><style>.cls-1{fill:#bbbad9}.cls-1,.cls-2,.cls-3,.cls-4{stroke-width:0}.cls-2{fill:red}.cls-3{fill:#fff}.cls-4{fill:#05032e}</style></defs><g id="Calque_3" data-name="Calque 3"><path d="m346.86 592.88-.33-.94 11.31-4.01.33.94-11.31 4.01zm-1.45-1.49-6.68-9.97.83-.56 6.68 9.97-.83.56zm24.07-6.53-.33-.94 11.31-4.01.33.94-11.31 4.01zm22.62-8.03-.33-.94 11.31-4.01.33.94-11.31 4.01zm-60.05-5.38-6.68-9.97.83-.56 6.68 9.97-.83.56zm82.67-2.65-.33-.94 11.31-4.01.33.94-11.31 4.01zm22.62-8.03-.33-.94 11.31-4.01.33.94-11.31 4.01zm22.62-8.03-.33-.94 11.31-4.01.33.94-11.31 4.01zM318.7 551.5l-6.68-9.97.83-.56 6.68 9.97-.83.56zm-214.5-.64-.74-.67 8.07-8.88.74.67-8.07 8.88zm10.93-1.11-.13-.99 11.89-1.62.13.99-11.89 1.62zm23.78-3.23-.13-.99 11.89-1.62.13.99-11.89 1.62zm343.66-1.81-.33-.94 11.31-4.01.33.94-11.31 4.01zm-319.88-1.42-.13-.99 11.89-1.62.13.99-11.89 1.62zm23.78-3.23-.13-.99 11.89-1.62.13.99-11.89 1.62zm23.78-3.23-.13-.99 11.89-1.62.13.99-11.89 1.62zm294.94-.15-.33-.94 11.31-4.01.33.94-11.31 4.01zm-271.15-3.08-.13-.99 11.89-1.62.13.99-11.89 1.62zm-113.7-.5-.74-.67 8.07-8.88.74.67-8.07 8.88zm185-1.54-6.68-9.97.83-.56 6.68 9.97-.83.56zm-47.52-1.19-.13-.99 11.89-1.62.13.99-11.89 1.62zm269.99-1.71-.33-.94 11.31-4.01.33.94-11.31 4.01zm-246.21-1.51-.13-.99 11.89-1.62.13.99-11.89 1.62zm23.78-3.23-.13-.99 11.89-1.62.13.99-11.89 1.62zm23.78-3.23-.13-.99 11.89-1.62.13.99-11.89 1.62zm221.26-.05-.33-.94 11.31-4.01.33.94-11.31 4.01zm-197.48-3.18-.13-.99 11.89-1.62.13.99-11.89 1.62zm-216.47-2.11-.74-.67 8.07-8.88.74.67-8.07 8.88zm240.25-1.12-.13-.99 11.89-1.62.13.99-11.89 1.62zm196.32-1.62-.33-.94 11.31-4.01.33.94-11.31 4.01zm-281.06-.98-6.68-9.97.83-.56 6.68 9.97-.83.56zm108.53-.63-.13-.99 11.89-1.62.13.99-11.89 1.62zm23.78-3.23-.13-.99 11.89-1.62.13.99-11.89 1.62zm23.78-3.23-.13-.99 11.89-1.62.13.99-11.89 1.62zm23.78-3.23-.13-.99 11.89-1.62.13.99-11.89 1.62zm117.64-.16-2.55-11.73.98-.21 2.55 11.73-.98.21zm-93.86-3.07-.13-.99 11.89-1.62.13.99-11.89 1.62zm-343.02-.5-.74-.67 8.07-8.88.74.67-8.07 8.88zm366.8-2.73-.13-.99 11.89-1.62.13.99-11.89 1.62zm-240.8-3.16-6.68-9.97.83-.56 6.68 9.97-.83.56zm264.58-.07-.13-.99 11.89-1.62.13.99-11.89 1.62zm23.78-3.23-.13-.99 11.89-1.62.13.99-11.89 1.62zm-398.22-8.57-.74-.67 8.07-8.88.74.67-8.07 8.88zm96.5-8.07-6.68-9.97.83-.56 6.68 9.97-.83.56zm-80.36-9.69-.74-.67 8.07-8.88.74.67-8.07 8.88zm67-10.25-6.68-9.97.83-.56 6.68 9.97-.83.56zm-50.86-7.51-.74-.67 8.07-8.88.74.67-8.07 8.88zm37.5-12.43-6.68-9.97.83-.56 6.68 9.97-.83.56zm-21.36-5.33-.74-.67 8.07-8.88.74.67-8.07 8.88zm8-14.61-6.68-9.97.83-.56 6.68 9.97-.83.56zm8.14-3.15-.74-.67 8.07-8.88.74.67-8.07 8.88zm-21.5-16.79-6.68-9.97.83-.56 6.68 9.97-.83.56zm37.64-.98-.74-.67 8.07-8.88.74.67-8.07 8.88zm16.14-17.76-.74-.67.75-.82-7.13-6.9.7-.72 7.82 7.57-1.4 1.54zm-67.14-1.2-6.68-9.97.83-.56 6.68 9.97-.83.56zm51.4-15.53-8.62-8.34.7-.72 8.62 8.34-.7.72zm-64.76-4.4-6.68-9.97.83-.56 6.68 9.97-.83.56zm47.51-12.29-8.62-8.34.7-.72 8.62 8.34-.7.72zm-60.87-7.65-6.68-9.97.83-.56 6.68 9.97-.83.56zm43.62-9.04-8.62-8.34.7-.72 8.62 8.34-.7.72zm-56.98-10.9-6.68-9.97.83-.56 6.68 9.97-.83.56zm39.73-5.79-8.62-8.34.7-.72 8.62 8.34-.7.72zm-53.09-14.15-6.68-9.97.83-.56 6.68 9.97-.83.56zm35.85-2.54-8.62-8.35.7-.72 8.62 8.35-.7.72zm-17.25-16.69-8.62-8.34.7-.72 8.62 8.34-.7.72zm-31.96-.71-6.68-9.97.83-.56 6.68 9.97-.83.56zm14.71-15.98-8.62-8.34.7-.72 8.62 8.34-.7.72zm-28.07-3.96-6.68-9.97.83-.56 6.68 9.97-.83.56zm10.82-12.73-8.62-8.34.7-.72 8.62 8.34-.7.72zm-24.18-7.21-6.68-9.97.83-.56 6.68 9.97-.83.56zm6.93-9.48-8.62-8.34.7-.72 8.62 8.34-.7.72zm-20.29-10.46-6.68-9.97.83-.56 6.68 9.97-.83.56zm3.05-6.23L86 197.96l.7-.72 8.62 8.35-.7.72zm-16.4-13.71-6.78-10.12 6.63 6.42-.67.69 1.65 2.46-.83.56z" class="cls-4"/><path d="m398.05 645.8-.59-.81 2.11-1.52.59.81-2.11 1.52zm11.83-8.55-.59-.81 9.73-7.03.59.81-9.73 7.03zm19.45-14.06-.59-.81 9.73-7.03.59.81-9.73 7.03zm19.45-14.06-.59-.81 9.73-7.03.59.81-9.73 7.03zm19.45-14.06-.59-.81 9.73-7.03.59.81-9.73 7.03zm19.45-14.06-.59-.81 9.73-7.03.59.81-9.73 7.03zm19.45-14.06-.59-.81 9.73-7.03.59.81-9.73 7.03zm19.45-14.06-.59-.81 9.72-7.03.59.81-9.72 7.03zm19.45-14.06-.59-.81 9.73-7.03.59.81-9.73 7.03zm19.45-14.06-.59-.81 9.73-7.03.59.81-9.73 7.03zm19.45-14.06-.59-.81 6.08-4.4-.87-3.73.97-.23 1.02 4.38-6.62 4.79zm1.92-20.63-2.71-11.69.97-.23 2.71 11.69-.97.23zm-5.43-23.38-2.71-11.69.97-.23 2.71 11.69-.97.23zm-5.43-23.38-2.71-11.69.97-.23 2.71 11.69-.97.23zm-5.43-23.38-2.71-11.69.97-.23 2.71 11.69-.97.23zm-5.43-23.38-2.71-11.69.97-.23 2.71 11.69-.97.23zm-5.43-23.38-2.71-11.69.97-.23 2.71 11.69-.97.23zm-5.43-23.38-2.71-11.69.97-.23 2.71 11.69-.97.23zm-5.43-23.38-2.71-11.69.97-.23 2.71 11.69-.97.23zm-5.43-23.38-2.71-11.69.97-.23 2.71 11.69-.97.23zm-5.43-23.38-2.71-11.69.97-.23 2.71 11.69-.97.23zm-5.43-23.38-2.71-11.69.97-.23 2.71 11.69-.97.23zm-5.43-23.38-2.71-11.69.97-.23 2.71 11.69-.97.23zm-5.43-23.38-2.71-11.69.97-.23 2.71 11.69-.97.23zm-5.43-23.38-2.71-11.69.97-.23 2.71 11.69-.97.23zM66.19 172.31l-.25-.97 11.61-3.04.25.97-11.61 3.04zm23.22-6.08-.25-.97 11.61-3.04.25.97-11.61 3.04zm421.43-3.47-2.71-11.69.97-.23 2.71 11.69-.97.23zm-398.21-2.62-.25-.97 11.61-3.04.25.97-11.61 3.04zm23.22-6.08-.25-.97 11.61-3.04.25.97-11.61 3.04zm23.22-6.08-.25-.97 11.61-3.04.25.97-11.61 3.04zm23.22-6.08-.25-.97 11.61-3.04.25.97-11.61 3.04zm323.14-2.51-2.71-11.69.97-.23 2.71 11.69-.97.23zm-299.92-3.57-.25-.97 11.61-3.04.25.97-11.61 3.04zm23.22-6.08-.25-.97 11.61-3.04.25.97-11.61 3.04zm23.22-6.08-.25-.97 11.61-3.04.25.97-11.61 3.04zm23.22-6.08-.25-.97 11.61-3.04.25.97-11.61 3.04zm224.84-1.56-2.71-11.69.97-.23 2.71 11.69-.97.23zm-201.63-4.53-.25-.97 11.61-3.04.25.97-11.61 3.04zm23.22-6.08-.25-.97 11.61-3.04.25.97-11.61 3.04zm23.22-6.08-.25-.97 11.61-3.04.25.97-11.61 3.04zm23.22-6.08-.25-.97 11.61-3.04.25.97-11.61 3.04zm126.55-.6-2.71-11.69.97-.23 2.71 11.69-.97.23zm-103.34-5.49-.25-.97 11.61-3.04.25.97-11.61 3.04zm23.22-6.08-.25-.97 11.61-3.04.25.97-11.61 3.04zM437.69 75l-.25-.97 11.61-3.04.25.97L437.69 75zm51.48-5.73-1.7-7.32-3.35.88-.25-.97 4.34-1.14 1.93 8.32-.97.23zm-28.26-.36-.25-.97 11.61-3.04.25.97-11.61 3.04z" class="cls-4"/><path d="m360.31 352.43-.4-.92 11.02-4.76.4.92-11.02 4.76zm22.03-9.52-.4-.92 11.02-4.76.4.92-11.02 4.76zm22.03-9.52-.4-.92 11.02-4.76.4.92-11.02 4.76zm22.03-9.52-.4-.92 11.02-4.76.4.92-11.02 4.76zm22.03-9.52-.4-.92 11.02-4.76.4.92-11.02 4.76zm22.03-9.52-.4-.92 11.02-4.76.4.92-11.02 4.76zm22.03-9.52-.4-.92 11.02-4.76.4.92-11.02 4.76zm22.03-9.52-.4-.92 11.02-4.76.4.92-11.02 4.76zm22.03-9.52-.4-.92 11.02-4.76.4.92-11.02 4.76zm22.03-9.52-.4-.92 11.02-4.76.4.92-11.02 4.76zm22.03-9.52-.4-.92 11.02-4.76.4.92-11.02 4.76zm22.03-9.52-.17-.39-10.3-1.04.1-.99 12.96 1.3-2.6 1.12zm-22.41-2.63-11.94-1.2.1-.99 11.94 1.2-.1.99zm-23.88-2.41-11.94-1.2.1-.99 11.94 1.2-.1.99zm-23.88-2.41-11.94-1.2.1-.99 11.94 1.2-.1.99zm-23.88-2.41-11.94-1.2.1-.99 11.94 1.2-.1.99zm-23.88-2.41-11.94-1.2.1-.99 11.94 1.2-.1.99zm-23.88-2.41-11.94-1.2.1-.99 11.94 1.2-.1.99zm-23.88-2.41-11.94-1.2.1-.99 11.94 1.2-.1.99zm-23.88-2.41-11.94-1.2.1-.99 11.94 1.2-.1.99zm-23.88-2.41-11.94-1.2.1-.99 11.94 1.2-.1.99zm-23.88-2.41-11.94-1.2.1-.99 11.94 1.2-.1.99zm-23.88-2.41-11.94-1.2.1-.99 11.94 1.2-.1.99zm-23.88-2.41-11.94-1.2.1-.99 11.94 1.2-.1.99zm-23.88-2.41-11.94-1.2.1-.99 11.94 1.2-.1.99zm-23.88-2.41-11.94-1.2.1-.99 11.94 1.2-.1.99zm-23.88-2.41-11.94-1.2.1-.99 11.94 1.2-.1.99zm-23.88-2.41-11.94-1.2.1-.99 11.94 1.2-.1.99zm-23.88-2.41-11.94-1.2.1-.99 11.94 1.2-.1.99zm-23.88-2.41-11.94-1.2.1-.99 11.94 1.2-.1.99zm-23.88-2.41-11.94-1.2.1-.99 11.94 1.2-.1.99zm-23.88-2.41-11.94-1.2.1-.99 11.94 1.2-.1.99zm-23.88-2.41-11.94-1.2.1-.99 11.94 1.2-.1.99zm-23.88-2.41-11.94-1.2.1-.99 11.94 1.2-.1.99z" class="cls-4"/><path d="m406.03 659.96-63.62-67.73 170.01-154.01-80.86-87.57L105.77 540.9l-1.51-2.59 325.22-189.92-132.6-143.6-215.42-6.74L478.6 88.31l.62.76 128.6 158.64-173.6 101.38 82.46 89.3-1.12 1.02-168.87 152.97 61.53 65.5-2.19 2.05zM101.34 195.68l196.89 6.16.43.46 133.48 144.55 171.15-99.95L477.51 91.74 101.34 195.68z" class="cls-4"/><path d="M79.55 565.09h-3V188.73l232.81 133.79L485.5 77.09l2.44 1.75-175.96 245.18 275.82 158.5-1.25 2.71-313.1-112.68 34.16-47.59L79.55 193.91v371.18zM278.2 371.08l293.37 105.58-261.36-150.19-32.02 44.61z" class="cls-4"/><path d="m291.8 322.01 18.8 99.61 86.45-20.67-16.91-101.5-88.34 22.56z" class="cls-3"/><path d="m241.05 323.89 50.75-1.88 18.8 99.61h-50.08l-19.47-97.73z" class="cls-4"/><path d="m241.05 323.89 95.86-20.68 43.23-3.76-88.34 22.56-50.75 1.88zM9.41 117.57l36.29 34.95 57.79-10.76-36.29-34.94-57.79 10.75z" class="cls-1"/><path d="m45.7 152.52-9.41 55.1L0 172.68l9.41-55.11 36.29 34.95z" class="cls-4"/><path d="m36.29 207.62 9.41-55.1 57.79-10.76-12.09 55.11-55.11 10.75z" class="cls-3"/><path d="m572.49 466.51 58.2 6.68-15.05 54.58-56.63-7.24 13.48-54.02z" class="cls-1"/><path d="m559.01 520.53 16.32 20.6 55.36 6.69-15.05-20.05-56.63-7.24z" class="cls-4"/><path d="m630.69 547.82 13.48-54.58-13.48-20.05-15.05 54.58 15.05 20.05z" class="cls-3"/><path d="m360.32 651.77 22.26-28.32 24.55 35.49-23.41 27.88-23.4-35.05z" class="cls-4"/><path d="m407.13 658.94 32.91-9.97-25.09-37.63-32.37 12.11 24.55 35.49z" class="cls-1"/><path d="m383.72 686.82 35.97-10.85 20.35-27-32.91 9.97-23.41 27.88z" class="cls-3"/><path d="m10.94 587.27 49.73-20.16 21.5-48.39-48.39 20.16-22.84 48.39z" class="cls-1"/><path d="m60.67 567.11 44.35 44.35 24.19-49.73-47.04-43.01-21.5 48.39z" class="cls-3"/><path d="m10.94 587.27 49.73 45.33 44.35-21.14-44.35-44.35-49.73 20.16z" class="cls-4"/><circle cx="92.55" cy="197.32" r="16.5" class="cls-2"/><circle cx="297.55" cy="203.32" r="11.5" class="cls-2"/><circle cx="344.55" cy="592.32" r="11.5" class="cls-2"/><path d="M469.92 22.04 504.19 0l55.11 41.67-30.91 21.5-58.47-41.13z" class="cls-1"/><path d="M469.92 22.04 445.05 74l52.42 40.25 30.92-51.08-58.47-41.13z" class="cls-4"/><path d="m497.47 114.25 34.95-20.16 26.88-52.42-30.91 21.5-30.92 51.08z" class="cls-3"/><circle cx="514.55" cy="438.32" r="16.5" class="cls-2"/><circle cx="103.55" cy="534.32" r="16.5" class="cls-2"/></g></svg>